<svg width="20" height="20" viewBox="0 0 20 20" fill="none" xmlns="http://www.w3.org/2000/svg">
<path fill-rule="evenodd" clip-rule="evenodd" d="M3 10C3 6.13401 6.13401 3 10 3C13.866 3 17 6.13401 17 10C17 13.866 13.866 17 10 17C6.13401 17 3 13.866 3 10ZM10 4.5C7.98377 4.5 6.22093 5.58491 5.26342 7.2028L7.26256 9.20192C7.73473 9.67409 8 10.3145 8 10.9823L8 11.5C8 11.7762 8.22386 12 8.5 12C9.60457 12 10.5 12.8954 10.5 14L10.5 15.4776C12.52 15.2955 14.2251 14.0213 15.0202 12.25L14 12.25C13.8011 12.25 13.6103 12.171 13.4697 12.0303C13.329 11.8897 13.25 11.6989 13.25 11.5V11C13.25 10.5858 12.9142 10.25 12.5 10.25L9.99999 10.25C9.02786 10.25 8.24999 9.45506 8.24999 8.49422C8.24999 7.95425 8.49956 7.43886 8.93064 7.10609L9.39256 6.74951C9.48897 6.67509 9.54543 6.56019 9.54543 6.4384V6.39764C9.54543 5.5134 10.165 4.77388 10.9937 4.58954C10.6714 4.53072 10.3393 4.5 10 4.5ZM12.8752 5.31043C12.537 5.75693 12.001 6.04537 11.3977 6.04537C11.2032 6.04537 11.0454 6.20308 11.0454 6.39764V6.4384C11.0454 7.02499 10.7735 7.57845 10.3091 7.9369L9.84723 8.29347C9.78773 8.3394 9.74999 8.41444 9.74999 8.49422C9.74999 8.63794 9.86755 8.75002 9.99999 8.75002L12.5 8.75002C13.6582 8.75002 14.6119 9.62503 14.7363 10.75L15.4493 10.75C15.4827 10.5048 15.5 10.2544 15.5 10C15.5 8.01633 14.4498 6.27793 12.8752 5.31043ZM4.5 10C4.5 9.55654 4.55248 9.12534 4.65158 8.71227L6.2019 10.2626C6.39277 10.4534 6.5 10.7123 6.5 10.9822L6.5 11.5C6.5 12.6046 7.39543 13.5 8.50001 13.5C8.77615 13.5 9.00001 13.7239 9.00001 14L9.00001 15.4093C6.43989 14.9391 4.5 12.6961 4.5 10Z" fill="#4A4A4A"/>
</svg>
