<svg width="20" height="20" viewBox="0 0 20 20" fill="none" xmlns="http://www.w3.org/2000/svg">
<path d="M10.75 12.7502C10.75 13.1644 10.4142 13.5002 10 13.5002C9.58579 13.5002 9.25 13.1644 9.25 12.7502V6.06087L7.53033 7.78054C7.23744 8.07344 6.76256 8.07344 6.46967 7.78054C6.17678 7.48765 6.17678 7.01278 6.46967 6.71988L9.46967 3.71988C9.76256 3.42699 10.2374 3.42699 10.5303 3.71988L13.5303 6.71988C13.8232 7.01278 13.8232 7.48765 13.5303 7.78054C13.2374 8.07344 12.7626 8.07344 12.4697 7.78054L10.75 6.06087L10.75 12.7502Z" fill="white"/>
<path d="M16.5 13.7502C16.5 13.336 16.1642 13.0002 15.75 13.0002C15.3358 13.0002 15 13.336 15 13.7502V14.5102C15 14.9244 14.6642 15.2602 14.25 15.2602L5.75 15.2602C5.33579 15.2602 5 14.9244 5 14.5102L5 13.7502C5 13.336 4.66421 13.0002 4.25 13.0002C3.83579 13.0002 3.5 13.336 3.5 13.7502V14.5102C3.5 15.7529 4.50736 16.7602 5.75 16.7602L14.25 16.7602C15.4926 16.7602 16.5 15.7529 16.5 14.5102V13.7502Z" fill="white"/>
</svg>
