<svg width="20" height="20" viewBox="0 0 20 20" fill="none" xmlns="http://www.w3.org/2000/svg">
<path fill-rule="evenodd" clip-rule="evenodd" d="M13 10.0004C13 11.6573 11.6569 13.0004 10 13.0004C8.34315 13.0004 7 11.6573 7 10.0004C7 8.34357 8.34315 7.00043 10 7.00043C11.6569 7.00043 13 8.34357 13 10.0004ZM11.5 10.0004C11.5 10.8289 10.8284 11.5004 10 11.5004C9.17157 11.5004 8.5 10.8289 8.5 10.0004C8.5 9.172 9.17157 8.50043 10 8.50043C10.8284 8.50043 11.5 9.172 11.5 10.0004Z" fill="#000000"/>
<path fill-rule="evenodd" clip-rule="evenodd" d="M10 4.00043C7.52353 4.00043 5.65153 5.23019 4.42264 6.53259C3.80748 7.18456 3.34017 7.86747 3.02329 8.4549C2.86488 8.74854 2.73973 9.02634 2.65225 9.27212C2.57143 9.49917 2.5 9.76062 2.5 10.0004C2.5 10.2402 2.57143 10.5017 2.65225 10.7287C2.73973 10.9745 2.86488 11.2523 3.02329 11.546C3.34017 12.1334 3.80748 12.8163 4.42264 13.4683C5.65153 14.7707 7.52353 16.0004 10 16.0004C12.4765 16.0004 14.3485 14.7707 15.5774 13.4683C16.1925 12.8163 16.6598 12.1334 16.9767 11.546C17.1351 11.2523 17.2603 10.9745 17.3478 10.7287C17.4286 10.5017 17.5 10.2402 17.5 10.0004C17.5 9.76062 17.4286 9.49917 17.3478 9.27212C17.2603 9.02634 17.1351 8.74854 16.9767 8.4549C16.6598 7.86747 16.1925 7.18456 15.5774 6.53259C14.3485 5.23019 12.4765 4.00043 10 4.00043ZM4.00141 10.0025L4.00103 10.0004L4.00141 9.99836C4.00509 9.97855 4.01827 9.90751 4.0654 9.77512C4.12269 9.61416 4.21422 9.40661 4.34345 9.16705C4.60183 8.68807 4.9936 8.11317 5.51365 7.56201C6.55519 6.45816 8.05819 5.50043 10 5.50043C11.9418 5.50043 13.4448 6.45816 14.4864 7.56201C15.0064 8.11317 15.3982 8.68807 15.6566 9.16705C15.7858 9.40661 15.8773 9.61416 15.9346 9.77512C15.9817 9.90751 15.9949 9.97855 15.9986 9.99836L15.999 10.0004L15.9986 10.0025C15.9949 10.0223 15.9817 10.0933 15.9346 10.2257C15.8773 10.3867 15.7858 10.5942 15.6566 10.8338C15.3982 11.3128 15.0064 11.8877 14.4864 12.4388C13.4448 13.5427 11.9418 14.5004 10 14.5004C8.05819 14.5004 6.55519 13.5427 5.51365 12.4388C4.9936 11.8877 4.60183 11.3128 4.34345 10.8338C4.21422 10.5942 4.12269 10.3867 4.0654 10.2257C4.01827 10.0933 4.00509 10.0223 4.00141 10.0025Z" fill="#000000"/>
</svg>
