<svg width="20" height="20" viewBox="0 0 20 20" fill="none" xmlns="http://www.w3.org/2000/svg">
<path fill-rule="evenodd" clip-rule="evenodd" d="M5.5 5.75043C5.5 5.06007 6.05964 4.50043 6.75 4.50043H9.5V7.75043C9.5 8.71693 10.2835 9.50043 11.25 9.50043H14.5V10.2504C14.5 10.6646 14.8358 11.0004 15.25 11.0004C15.6642 11.0004 16 10.6646 16 10.2504V8.75043C16 8.55152 15.921 8.36075 15.7803 8.2201L10.7803 3.2201C10.6397 3.07944 10.4489 3.00043 10.25 3.00043H6.75C5.23122 3.00043 4 4.23164 4 5.75043V14.2504C4 15.7692 5.23122 17.0004 6.75 17.0004H10C10.4142 17.0004 10.75 16.6646 10.75 16.2504C10.75 15.8362 10.4142 15.5004 10 15.5004H6.75C6.05964 15.5004 5.5 14.9408 5.5 14.2504V5.75043ZM13.4393 8.00043L11 5.56109V7.75043C11 7.8885 11.1119 8.00043 11.25 8.00043H13.4393Z" fill="#000000"/>
<path d="M15 12.5004C15 12.0862 14.6642 11.7504 14.25 11.7504C13.8358 11.7504 13.5 12.0862 13.5 12.5004V15.4398L12.7803 14.7201C12.4874 14.4272 12.0126 14.4272 11.7197 14.7201C11.4268 15.013 11.4268 15.4879 11.7197 15.7808L13.7197 17.7808C14.0126 18.0737 14.4874 18.0737 14.7803 17.7808L16.7803 15.7808C17.0732 15.4879 17.0732 15.013 16.7803 14.7201C16.4874 14.4272 16.0126 14.4272 15.7197 14.7201L15 15.4398V12.5004Z" fill="#000000"/>
</svg>
