<svg width="20" height="20" viewBox="0 0 20 20" fill="none" xmlns="http://www.w3.org/2000/svg">
<path fill-rule="evenodd" clip-rule="evenodd" d="M12.3226 13.3835C11.3996 14.0843 10.2484 14.5002 9 14.5002C5.96243 14.5002 3.5 12.0378 3.5 9.00021C3.5 5.96265 5.96243 3.50021 9 3.50021C12.0376 3.50021 14.5 5.96265 14.5 9.00021C14.5 10.2486 14.0841 11.3998 13.3833 12.3229L16.2803 15.2199C16.5732 15.5128 16.5732 15.9876 16.2803 16.2805C15.9874 16.5734 15.5126 16.5734 15.2197 16.2805L12.3226 13.3835ZM13 9.00021C13 11.2094 11.2091 13.0002 9 13.0002C6.79086 13.0002 5 11.2094 5 9.00021C5 6.79107 6.79086 5.00021 9 5.00021C11.2091 5.00021 13 6.79107 13 9.00021Z" fill="#8A8A8A"/>
</svg>
