<svg width="20" height="20" viewBox="0 0 20 20" fill="none" xmlns="http://www.w3.org/2000/svg">
<path d="M10.8839 4.32336C10.3957 3.83521 9.60427 3.83521 9.11612 4.32336L6.46967 6.96981C6.17678 7.2627 6.17678 7.73758 6.46967 8.03047C6.76256 8.32336 7.23744 8.32336 7.53033 8.03047L10 5.5608L12.4697 8.03047C12.7626 8.32336 13.2374 8.32336 13.5303 8.03047C13.8232 7.73758 13.8232 7.2627 13.5303 6.96981L10.8839 4.32336Z" fill="#8A8A8A"/>
<path d="M13.5303 13.0306L10.8839 15.6771C10.3957 16.1652 9.60427 16.1652 9.11612 15.6771L6.46967 13.0306C6.17678 12.7377 6.17678 12.2629 6.46967 11.97C6.76256 11.6771 7.23744 11.6771 7.53033 11.97L10 14.4396L12.4697 11.97C12.7626 11.6771 13.2374 11.6771 13.5303 11.97C13.8232 12.2629 13.8232 12.7377 13.5303 13.0306Z" fill="#8A8A8A"/>
</svg>
